<svg width="253" height="33" viewBox="0 0 253 33" fill="none" xmlns="http://www.w3.org/2000/svg">
<g clip-path="url(#clip0)">
<path d="M21.3535 0L21.5851 27.4214L6.20688 0H0V32.424H4.26144L4.02984 4.35408L19.7323 32.424H25.6613V0H21.3535Z" fill="white"/>
<path d="M43.7746 28.95C39.7911 28.95 36.6413 26.3098 36.1318 22.0946H50.5836L54.0113 18.4354C53.4091 11.5337 48.175 8.61552 43.5893 8.61552C41.4123 8.61552 39.9763 9.17136 39.3742 9.4956L36.1781 12.7843C33.3526 15.6562 32.1019 18.6206 32.1019 21.7704C32.1019 28.5331 37.1508 32.8872 43.5893 32.8872C47.1559 32.8872 50.2594 31.4513 52.3438 29.3206L50.1667 26.2634C48.8698 27.5604 46.8317 28.95 43.7746 28.95ZM43.1261 12.3674C47.3412 12.3674 49.4256 15.1466 50.0278 18.389H36.3634C37.1508 14.7298 39.7911 12.3674 43.1261 12.3674Z" fill="white"/>
<path d="M86.2829 9.07872L81.1877 28.8574L76.4168 9.07872H70.951L66.2264 28.7647L61.1312 9.07872H56.7308L63.2619 32.424H68.8203L73.6839 12.9696L78.3622 32.424H84.0133L90.5907 9.07872H86.2829Z" fill="white"/>
<path d="M115.829 9.07872L110.734 28.8574L105.963 9.07872H100.497L95.7727 28.7647L90.6775 9.07872H86.2771L92.8082 32.424H98.3666L103.23 12.9696L107.909 32.424H113.56L120.137 9.07872H115.829Z" fill="white"/>
<path d="M132.389 8.61552C128.174 8.61552 124.283 11.2094 124.051 15.3782H128.313C128.729 13.2938 130.258 12.3211 132.342 12.3211C135.122 12.3211 136.557 14.0813 136.557 16.7215V19.5007C135.631 18.4817 133.732 17.5553 131.416 17.5553C126.877 17.5553 123.171 20.7514 123.171 25.2907C123.171 29.969 126.784 32.8872 131.138 32.8872C132.806 32.8872 133.825 32.4703 134.519 32.1461L136.557 30.0617V32.424H140.68V16.1657C140.68 10.7926 136.835 8.61552 132.389 8.61552ZM132.111 29.1816C129.424 29.1816 127.479 27.4214 127.479 25.1054C127.479 22.7431 129.424 21.1219 132.111 21.1219C134.751 21.1219 136.835 22.8821 136.835 25.1054C136.835 27.3751 134.751 29.1816 132.111 29.1816Z" fill="white"/>
<path d="M163.05 9.07872L156.38 28.7184L149.571 9.07872H145.078L153.647 32.424H158.974L167.59 9.07872H163.05Z" fill="white"/>
<path d="M181.84 28.95C177.856 28.95 174.707 26.3098 174.197 22.0946H188.649L192.077 18.4354C191.475 11.5337 186.24 8.61552 181.655 8.61552C179.478 8.61552 178.042 9.17136 177.44 9.4956L174.243 12.7843C171.418 15.6562 170.167 18.6206 170.167 21.7704C170.167 28.5331 175.216 32.8872 181.655 32.8872C185.221 32.8872 188.325 31.4513 190.409 29.3206L188.232 26.2634C186.935 27.5604 184.897 28.95 181.84 28.95ZM181.191 12.3674C185.407 12.3674 187.491 15.1466 188.093 18.389H174.429C175.216 14.7298 177.856 12.3674 181.191 12.3674Z" fill="white"/>
<rect x="204.077" y="9.8872" width="48" height="23" rx="2" fill="#F8B000"/>
<path d="M211.741 25.8872H217.149L218.797 24.2072C220.013 22.9752 220.989 21.6472 220.989 19.7912C220.989 16.8472 218.733 14.6872 215.581 14.6872H211.741V25.8872ZM213.213 24.4792V16.0952H215.293C217.789 16.1272 219.437 17.8552 219.437 20.2232C219.437 22.7832 217.581 24.4792 215.757 24.4792H213.213ZM226.627 24.6872C225.251 24.6872 224.163 23.7752 223.987 22.3192H228.979L230.163 21.0552C229.955 18.6712 228.147 17.6632 226.563 17.6632C225.811 17.6632 225.315 17.8552 225.107 17.9672L224.003 19.1032C223.027 20.0952 222.595 21.1192 222.595 22.2072C222.595 24.5432 224.339 26.0472 226.563 26.0472C227.795 26.0472 228.867 25.5512 229.587 24.8152L228.835 23.7592C228.387 24.2072 227.683 24.6872 226.627 24.6872ZM226.403 18.9592C227.859 18.9592 228.579 19.9192 228.787 21.0392H224.067C224.339 19.7752 225.251 18.9592 226.403 18.9592ZM237.152 17.8232L234.848 24.6072L232.496 17.8232H230.944L233.904 25.8872H235.744L238.72 17.8232H237.152ZM242.362 26.0472C242.89 26.0472 243.37 25.9512 243.578 25.8552L244.378 25.0392C244.954 24.4632 245.21 23.8712 245.21 23.2792C245.21 22.4312 244.73 21.5672 243.194 21.1672L242.218 20.9112C241.466 20.7192 241.114 20.4472 241.114 19.9672C241.114 19.4072 241.578 18.9432 242.394 18.9432C243.178 18.9432 243.642 19.3912 243.706 20.0472H245.146C245.146 18.6072 244.154 17.6632 242.506 17.6632C241.914 17.6632 241.514 17.8072 241.338 17.9032L240.554 18.7032C239.962 19.3112 239.802 19.8552 239.802 20.3672C239.802 21.1032 240.138 21.9192 241.626 22.3192L242.618 22.5912C243.546 22.8472 243.85 23.2152 243.85 23.6792C243.85 24.2552 243.37 24.7512 242.458 24.7512C241.786 24.7512 241.21 24.4952 241.098 23.7432H239.658C239.658 25.1832 240.746 26.0472 242.362 26.0472Z" fill="black"/>
</g>
<defs>
<clipPath id="clip0">
<rect width="252.077" height="32.8872" fill="white"/>
</clipPath>
</defs>
</svg>
