<svg width="177" height="19" viewBox="0 0 177 19" fill="none" xmlns="http://www.w3.org/2000/svg">
<path fill-rule="evenodd" clip-rule="evenodd" d="M96.002 14.7012C96.1464 14.4673 96.2841 14.2255 96.4147 13.9764C96.2771 14.218 96.1394 14.4598 96.002 14.7012Z" fill="white"/>
<path d="M89.4284 18.8594V14.7462L89.4342 14.7462C90.0088 14.7462 90.5213 14.4205 90.8553 13.9116C90.9071 13.8326 90.9546 13.7493 90.9974 13.6621C92.071 11.7777 93.1365 9.91195 94.0807 8.26587C95.599 5.77912 97.8625 4.15183 100.41 4.00616H100.784V8.12052L100.773 8.12005L100.767 8.11979C100.753 8.11913 100.738 8.11847 100.724 8.11847C100.111 8.11847 99.5679 8.47938 99.2376 9.03264L99.2347 9.03756C99.223 9.05732 99.2115 9.07732 99.2003 9.09756C98.3265 10.6233 97.3713 12.2969 96.4147 13.9764C96.2771 14.218 96.1394 14.4598 96.002 14.7012C94.4333 17.2422 92.0708 18.8594 89.4284 18.8594Z" fill="white"/>
<path fill-rule="evenodd" clip-rule="evenodd" d="M107.354 14.6959C107.498 14.4619 107.636 14.2201 107.767 13.971C107.629 14.2127 107.491 14.4544 107.354 14.6959Z" fill="white"/>
<path d="M100.78 18.854V14.7408L100.786 14.7408C101.361 14.7408 101.873 14.4151 102.207 13.9062C102.259 13.8273 102.307 13.744 102.349 13.6567C103.423 11.7724 104.488 9.90658 105.433 8.2605C106.951 5.77375 109.214 4.14646 111.762 4.00079H112.136V8.11515L112.125 8.11468L112.119 8.11442C112.105 8.11376 112.09 8.1131 112.076 8.1131C111.462 8.1131 110.92 8.47401 110.59 9.02728L110.587 9.03219C110.575 9.05195 110.563 9.07195 110.552 9.09219C109.678 10.6179 108.723 12.2915 107.767 13.971C107.629 14.2127 107.491 14.4544 107.354 14.6959C105.785 17.2368 103.423 18.854 100.78 18.854Z" fill="white"/>
<path fill-rule="evenodd" clip-rule="evenodd" d="M84.6461 14.7012C84.7905 14.4673 84.9282 14.2255 85.0588 13.9764C84.9212 14.218 84.7835 14.4598 84.6461 14.7012Z" fill="white"/>
<path fill-rule="evenodd" clip-rule="evenodd" d="M48.7873 14.7012C48.6428 14.4673 48.5051 14.2255 48.3746 13.9764C48.5122 14.218 48.6498 14.4598 48.7873 14.7012Z" fill="white"/>
<path fill-rule="evenodd" clip-rule="evenodd" d="M61.9346 14.7012C62.0791 14.4673 62.2168 14.2255 62.3474 13.9764C62.2097 14.218 62.0721 14.4598 61.9346 14.7012Z" fill="white"/>
<path fill-rule="evenodd" clip-rule="evenodd" d="M71.4987 14.7012C71.3543 14.4673 71.2166 14.2255 71.086 13.9764C71.2236 14.218 71.3613 14.4598 71.4987 14.7012Z" fill="white"/>
<path d="M0 18.5412V0H4.61508L15.2753 11.4161V0H20.2154V18.5412H15.9578L4.94009 6.75431V18.5412H0Z" fill="white"/>
<path d="M33.4119 18.8591C30.7685 18.8591 28.5909 18.1792 26.8792 16.8195C25.1675 15.4422 24.3117 13.6587 24.3117 11.4691C24.3117 9.40305 25.1242 7.65488 26.7492 6.22456C28.3743 4.79423 30.4326 4.07907 32.9243 4.07907C35.6761 4.07907 37.7778 4.82072 39.2295 6.30402C40.6811 7.78732 41.407 9.61495 41.407 11.7869C41.407 11.9988 41.3853 12.352 41.342 12.8464H29.2193C29.4576 13.747 29.9451 14.4357 30.6818 14.9124C31.4185 15.3892 32.3502 15.6276 33.4769 15.6276C35.0152 15.6276 36.4236 15.142 37.7019 14.1708L40.5295 16.2103C38.7744 17.9762 36.4019 18.8591 33.4119 18.8591ZM29.1543 10.3301H36.5969C36.4452 9.41188 36.0444 8.67906 35.3944 8.13165C34.766 7.58425 33.9427 7.31054 32.9243 7.31054C31.9277 7.31054 31.0935 7.58425 30.4218 8.13165C29.7718 8.6614 29.3493 9.39422 29.1543 10.3301Z" fill="white"/>
<path d="M121.692 18.8005C119.98 18.8005 118.55 18.412 117.402 17.635C116.275 16.8581 115.712 15.7809 115.712 14.4036C115.712 12.9026 116.34 11.7725 117.597 11.0132C118.875 10.2539 120.587 9.8742 122.732 9.8742C124.183 9.8742 125.603 10.0684 126.989 10.4569V10.2185C126.989 8.48802 125.743 7.62276 123.252 7.62276C121.757 7.62276 120.153 7.87881 118.442 8.3909L117.207 5.31835C119.33 4.55904 121.583 4.17939 123.967 4.17939C126.588 4.17939 128.549 4.70914 129.849 5.76864C131.106 6.79282 131.734 8.30261 131.734 10.298V18.5356H126.957V16.9993C125.635 18.2001 123.88 18.8005 121.692 18.8005ZM123.187 16.0193C124.335 16.0193 125.267 15.7897 125.982 15.3306C126.697 14.8538 127.054 14.2535 127.054 13.5295V12.8143C126.123 12.4611 125.072 12.2846 123.902 12.2846C122.818 12.2846 121.973 12.4611 121.367 12.8143C120.782 13.1498 120.489 13.6442 120.489 14.2976C120.489 14.8274 120.738 15.2512 121.237 15.569C121.735 15.8692 122.385 16.0193 123.187 16.0193Z" fill="white"/>
<path d="M140.648 18.6416L133.791 4.33832H139.023L142.923 13.8473L146.856 4.33832H151.991L145.133 18.6416H140.648Z" fill="white"/>
<path d="M162.109 18.8535C159.466 18.8535 157.288 18.1736 155.577 16.8139C153.865 15.4366 153.009 13.6531 153.009 11.4634C153.009 9.39742 153.822 7.64925 155.447 6.21893C157.072 4.7886 159.13 4.07344 161.622 4.07344C164.374 4.07344 166.475 4.81509 167.927 6.29839C169.379 7.78169 170.105 9.60932 170.105 11.7813C170.105 11.9932 170.083 12.3464 170.04 12.8408H157.917C158.155 13.7414 158.643 14.43 159.379 14.9068C160.116 15.3836 161.048 15.622 162.174 15.622C163.713 15.622 165.121 15.1364 166.399 14.1652L169.227 16.2047C167.472 17.9705 165.099 18.8535 162.109 18.8535ZM157.852 10.3245H165.294C165.143 9.40625 164.742 8.67343 164.092 8.12603C163.464 7.57862 162.64 7.30491 161.622 7.30491C160.625 7.30491 159.791 7.57862 159.119 8.12603C158.469 8.65577 158.047 9.38859 157.852 10.3245Z" fill="white"/>
<path d="M84.6461 14.7012L85.0588 13.9764C86.0154 12.2969 86.9706 10.6233 87.8444 9.09756C87.8556 9.07732 87.8671 9.05732 87.8788 9.03756L87.8817 9.03264C88.212 8.47938 88.7546 8.11847 89.368 8.11847C89.3824 8.11847 89.3968 8.11913 89.4111 8.11979L89.4169 8.12005L89.4281 8.12052V4.00616H89.0542C86.5066 4.15183 84.2431 5.77912 82.7248 8.26587C81.7806 9.91195 80.715 11.7777 79.6415 13.6621C79.5987 13.7493 79.5512 13.8326 79.4994 13.9116C79.1653 14.4205 78.6529 14.7462 78.0783 14.7462L78.0724 14.7462L78.0665 14.7462C77.492 14.7462 76.9795 14.4205 76.6454 13.9116C76.5936 13.8326 76.5461 13.7493 76.5033 13.6621C75.4298 11.7777 74.3643 9.91195 73.4201 8.26587C71.9017 5.77912 69.6382 4.15183 67.0906 4.00616H66.3428C63.7952 4.15183 61.5316 5.77912 60.0133 8.26587C59.0691 9.91195 58.0036 11.7777 56.93 13.6621C56.8873 13.7493 56.8397 13.8326 56.7879 13.9116C56.4539 14.4205 55.9414 14.7462 55.3669 14.7462L55.3609 14.7462L55.3551 14.7462C54.7805 14.7462 54.268 14.4205 53.934 13.9116C53.8822 13.8326 53.8347 13.7493 53.7919 13.6621C52.7183 11.7777 51.6528 9.91195 50.7086 8.26587C49.1903 5.77912 46.9268 4.15183 44.3791 4.00616H44.0052V8.12052L44.0164 8.12005L44.0222 8.11979C44.0366 8.11913 44.0509 8.11847 44.0654 8.11847C44.6787 8.11847 45.2213 8.47938 45.5516 9.03264L45.5546 9.03756C45.5663 9.05732 45.5778 9.07732 45.5889 9.09756C46.4627 10.6233 47.418 12.2969 48.3746 13.9764L48.7873 14.7012C50.356 17.2422 52.7185 18.8594 55.3609 18.8594C58.0033 18.8594 60.366 17.2422 61.9346 14.7012L62.3474 13.9764C63.304 12.2969 64.2592 10.6232 65.133 9.09756L65.1674 9.03756L65.1703 9.03264C65.5006 8.47938 66.0432 8.11847 66.6565 8.11847C66.671 8.11847 66.6854 8.11913 66.6997 8.11979L66.7055 8.12005L66.7167 8.12052L66.7279 8.12005L66.7337 8.11979C66.748 8.11913 66.7624 8.11847 66.7768 8.11847C67.3902 8.11847 67.9328 8.47938 68.2631 9.03264L68.266 9.03756C68.2778 9.05732 68.2892 9.07732 68.3004 9.09756C69.1742 10.6233 70.1294 12.2969 71.086 13.9764L71.4987 14.7012C73.0674 17.2422 75.43 18.8594 78.0724 18.8594C80.7149 18.8594 83.0774 17.2422 84.6461 14.7012Z" fill="white"/>
<path d="M172.932 15.12H176.827V18.9946H172.932V15.12Z" fill="white"/>
</svg>
