<svg width="170" height="170" viewBox="0 0 170 170" fill="none" xmlns="http://www.w3.org/2000/svg">
<path d="M85 0L92.1079 17.3725L102.672 1.85745L106.013 20.3282L119.573 7.34863L119 26.1103L134.962 16.2336L130.501 34.4662L148.167 28.1239L140.013 45.0306L158.612 42.5L147.121 57.3419L165.84 58.7336L151.514 70.862L169.534 76.1151L153 85L169.534 93.8849L151.514 99.138L165.84 111.266L147.121 112.658L158.612 127.5L140.013 124.969L148.167 141.876L130.501 135.534L134.962 153.766L119 143.89L119.573 162.651L106.013 149.672L102.672 168.143L92.1079 152.627L85 170L77.8921 152.627L67.3275 168.143L63.9868 149.672L50.4274 162.651L51 143.89L35.0383 153.766L39.4991 135.534L21.8327 141.876L29.9868 124.969L11.3878 127.5L22.8789 112.658L4.16019 111.266L18.486 99.138L0.465637 93.8849L17 85L0.465637 76.1151L18.486 70.862L4.16019 58.7336L22.8789 57.3419L11.3878 42.5L29.9868 45.0306L21.8327 28.1239L39.4991 34.4662L35.0383 16.2336L51 26.1103L50.4274 7.34863L63.9868 20.3282L67.3275 1.85745L77.8921 17.3725L85 0Z" fill="#282828"/>
<path d="M60.1593 77.3325H58.2257V87.3979C58.2257 90.7065 60.5353 93.0913 64.381 93.0913C68.2267 93.0913 70.5363 90.7065 70.5363 87.3979V77.3325H68.6027V87.269C68.6027 89.6108 67.0665 91.3081 64.381 91.3081C61.6955 91.3081 60.1593 89.6108 60.1593 87.269V77.3325ZM72.7436 92.8335H74.935L79.1137 86.6567H79.1889L83.3032 92.8335H85.6235L80.392 85.1528V85.0884L85.7416 77.3325H83.5395L79.35 83.563H79.2748L75.1391 77.3325H72.808L78.018 84.9917V85.0669L72.7436 92.8335ZM88.0456 96.1313L93.5349 77.3325H91.9343L86.445 96.1313H88.0456ZM97.1924 77.3325H95.2588V87.3979C95.2588 90.7065 97.5683 93.0913 101.414 93.0913C105.26 93.0913 107.569 90.7065 107.569 87.3979V77.3325H105.636V87.269C105.636 89.6108 104.1 91.3081 101.414 91.3081C98.7285 91.3081 97.1924 89.6108 97.1924 87.269V77.3325ZM112.731 92.8335V77.3325H110.797V92.8335H112.731Z" fill="#F8B000"/>
</svg>
